<svg width="176" height="75" viewBox="0 0 176 75" fill="none" xmlns="http://www.w3.org/2000/svg">
<g clip-path="url(#clip0_302_3261)">
<g style="mix-blend-mode:hard-light">
<path d="M7.65278 43.8782H0.270401L6.74084 13.4802H19.2909C22.3307 13.4802 24.8204 14.3487 26.7601 16.0857C28.7288 17.7938 29.7131 19.8927 29.7131 22.3825C29.7131 25.9724 28.4393 28.8963 25.8916 31.1545C23.3729 33.4126 20.116 34.5417 16.1208 34.5417H9.65035L7.65278 43.8782ZM12.7336 19.9941L11.04 28.0278H16.9893C18.3789 28.0278 19.5659 27.5357 20.5502 26.5513C21.5635 25.567 22.0702 24.3945 22.0702 23.0339C22.0702 22.1075 21.7662 21.3692 21.1582 20.8192C20.5502 20.2691 19.7252 19.9941 18.6829 19.9941H12.7336ZM36.9499 43.8782H30.0018L36.8196 11.7432H43.7677L36.9499 43.8782ZM45.2775 33.3692L47.7962 21.2968H54.7443L52.0082 34.2377C51.7767 35.3668 51.9361 36.2787 52.486 36.9735C53.0652 37.6394 53.9481 37.9723 55.1353 37.9723C56.2644 37.9723 57.2629 37.6249 58.1317 36.9301C59.0287 36.2353 59.5933 35.3378 59.8249 34.2377L62.5609 21.2968H69.5093L66.5997 35.1062C65.9917 38.0592 64.573 40.3318 62.344 41.9241C60.1437 43.5163 57.4364 44.3125 54.2231 44.3125C51.0098 44.3125 48.5489 43.2848 46.8408 41.2293C45.1327 39.1738 44.6116 36.5538 45.2775 33.3692ZM76.9281 27.3765H72.5856L73.8883 21.2968H78.2308L79.5335 15.2172L86.9162 13.046L85.1791 21.2968H90.6073L89.3046 27.3765H83.8764L82.2261 35.1931C81.8785 36.9301 82.5591 37.7986 84.2669 37.7986H87.0898L85.7871 43.8782H83.442C80.3155 43.8782 78.0426 43.0242 76.6239 41.3161C75.2056 39.608 74.8146 37.2775 75.4518 34.3245L76.9281 27.3765ZM91.7482 34.4548C91.7482 30.7492 93.1089 27.5646 95.8303 24.9012C98.5805 22.2088 101.866 20.8625 105.688 20.8625C108.844 20.8625 111.406 21.7601 113.374 23.555C115.343 25.321 116.327 27.7094 116.327 30.7202C116.327 34.4259 114.967 37.6249 112.245 40.3173C109.524 42.9808 106.267 44.3125 102.474 44.3125C99.2898 44.3125 96.6986 43.4295 94.7011 41.6635C92.7325 39.8686 91.7482 37.4657 91.7482 34.4548ZM98.9568 33.8903C98.9568 35.1062 99.304 36.0905 99.9992 36.8433C100.723 37.596 101.678 37.9723 102.865 37.9723C104.573 37.9723 106.035 37.3065 107.251 35.9748C108.496 34.614 109.119 33.0507 109.119 31.2848C109.119 30.0688 108.757 29.0845 108.033 28.3318C107.338 27.5791 106.397 27.2027 105.21 27.2027C103.502 27.2027 102.025 27.8831 100.781 29.2438C99.5648 30.5755 98.9568 32.1243 98.9568 33.8903ZM164.518 20.8625C168.368 20.8625 171.22 22.2811 173.073 25.1183C174.955 27.9265 175.244 31.2558 173.941 35.1062H157.483C157.686 36.1774 158.163 37.0025 158.916 37.5815C159.669 38.1316 160.595 38.4066 161.695 38.4066C163.895 38.4066 165.705 37.567 167.123 35.8879L172.552 38.4935C171.394 40.1726 169.801 41.5622 167.775 42.6623C165.777 43.7624 163.621 44.3125 161.304 44.3125C158.12 44.3125 155.529 43.4295 153.531 41.6635C151.562 39.8686 150.578 37.4657 150.578 34.4548C150.578 30.7492 151.939 27.5646 154.66 24.9012C157.41 22.2088 160.696 20.8625 164.518 20.8625ZM166.429 27.6804C165.705 27.0725 164.836 26.7685 163.823 26.7685C162.81 26.7685 161.811 27.0435 160.826 27.5935C159.871 28.1436 159.09 28.9108 158.481 29.8952H167.775C167.601 28.9976 167.152 28.2594 166.429 27.6804Z" fill="white"/>
</g>
<mask id="mask0_302_3261" style="mask-type:luminance" maskUnits="userSpaceOnUse" x="118" y="21" width="30" height="54">
<path d="M147.049 21.7129H118.099V74.1858H147.049V21.7129Z" fill="white"/>
</mask>
<g mask="url(#mask0_302_3261)">
<g style="mix-blend-mode:hard-light">
<path d="M125.962 51.449L122.157 45.9305C121.477 44.9444 121.155 43.7324 121.305 42.5324C121.335 42.2928 121.377 42.1049 121.434 42.0204L126.584 37.1396L131.911 36.8345C132.517 36.8 133.097 36.6 133.6 36.2466C134.176 35.8414 134.564 35.269 134.984 34.7019C135.54 33.9502 136.079 33.1864 136.601 32.4106C136.967 31.8658 137.404 31.3348 137.644 30.7124C137.696 30.5762 137.736 30.4142 137.663 30.2883C137.601 30.1831 137.476 30.1366 137.359 30.1159C136.956 30.0435 136.509 30.1124 136.104 30.1262C135.661 30.14 135.217 30.1521 134.773 30.1349C134.112 30.1107 133.451 30.0711 132.79 30.0452C131.287 29.9883 130.133 29.9814 128.629 29.9349C127.207 29.8883 125.677 29.7607 124.255 29.7142C121.287 29.6142 118.606 24.7317 118.099 21.7181C122.357 21.7181 126.615 21.7181 130.874 21.7181C133.546 21.7181 136.217 21.7181 138.889 21.7181C140.313 21.7181 141.488 21.6268 142.832 22.2078C144.072 22.7439 145.192 23.5956 145.978 24.73C147.502 26.9299 147.216 29.1746 146.274 31.502C145.683 32.9606 145.025 34.3915 144.312 35.7897C143.372 37.631 142.371 39.774 140.931 41.2446C137.668 44.5771 133.608 44.5375 129.357 44.753C130.504 46.4253 132.355 48.2666 132.238 50.4442C132.146 52.1784 131.283 53.4957 130.407 54.873C129.36 56.5194 128.316 58.1643 127.269 59.8107L119.663 71.7807L118.136 74.1857" fill="white"/>
</g>
<path opacity="0.54" d="M126.542 37.1416C126.542 37.1416 125.679 41.4171 129.313 44.7532L133.155 44.5222C133.155 44.5222 138.907 44.3308 141.566 40.4638L137.96 37.9979L134.384 35.5537C134.384 35.5537 133.479 36.6409 132.313 36.8071C130.813 36.8985 126.542 37.1416 126.542 37.1416Z" fill="url(#paint0_linear_302_3261)"/>
<path opacity="0.62" d="M137.115 30.0835C137.115 30.0835 144.596 29.5008 145.674 32.923C145.674 32.923 143.005 38.8174 141.61 40.4639C139.812 39.3549 134.428 35.5539 134.428 35.5539C134.428 35.5539 137.155 31.8403 137.712 30.5369C137.809 30.3128 137.389 30.0749 137.115 30.0835Z" fill="url(#paint1_linear_302_3261)"/>
</g>
</g>
<defs>
<linearGradient id="paint0_linear_302_3261" x1="130.417" y1="45.3859" x2="135.794" y2="36.3683" gradientUnits="userSpaceOnUse">
<stop/>
<stop offset="0.24" stop-color="#121619"/>
<stop offset="0.5" stop-color="#23282F"/>
<stop offset="0.76" stop-color="#2C343C"/>
<stop offset="1" stop-color="#303841"/>
</linearGradient>
<linearGradient id="paint1_linear_302_3261" x1="142.343" y1="30.1007" x2="137.169" y2="38.7758" gradientUnits="userSpaceOnUse">
<stop/>
<stop offset="0.04" stop-color="#020304"/>
<stop offset="0.44" stop-color="#1B2025"/>
<stop offset="0.78" stop-color="#2A3139"/>
<stop offset="1" stop-color="#303841"/>
</linearGradient>
<clipPath id="clip0_302_3261">
<rect width="176" height="74.5928" fill="white"/>
</clipPath>
</defs>
</svg>
